<?xml version="1.0" encoding="utf-8"?>
<!-- Generator: Adobe Illustrator 21.0.0, SVG Export Plug-In . SVG Version: 6.00 Build 0)  -->
<svg version="1.1" id="Layer_1" xmlns="http://www.w3.org/2000/svg" xmlns:xlink="http://www.w3.org/1999/xlink" x="0px" y="0px"
	 viewBox="0 0 794.6 631" style="enable-background:new 0 0 794.6 631;" xml:space="preserve">
<style type="text/css">
	.st0{fill:#1A397A;}
	.st1{fill:#91D4E1;}
	.st2{fill:#FBFBFB;}
	.st3{fill:#B4E1F7;}
	.st4{fill:#79DEAE;}
	.st5{fill:#DEF7FD;}
	.st6{fill:#3988BD;}
	.st7{fill:#0A122A;}
	.st8{fill:#F1F6FD;}
	.st9{fill:#69DEF9;}
	.st10{fill:#93D7E4;}
	.st11{fill:#0E1B42;}
	.st12{fill:#A2E4F8;}
	.st13{fill:#E9FCF2;}
	.st14{fill:url(#SVGID_1_);}
	.st15{fill:url(#SVGID_2_);}
	.st16{fill:url(#SVGID_3_);}
	.st17{fill:#F7B285;}
	.st18{fill:#9AEBAA;}
	.st19{fill:#F19977;}
	.st20{fill:url(#SVGID_4_);}
	.st21{fill:url(#SVGID_5_);}
	.st22{opacity:0.65;fill:#9AEBAA;enable-background:new    ;}
	.st23{fill:url(#SVGID_6_);}
</style>
<path class="st0" d="M180.9,373.9c2.4-8.5,5.8-16.5,13.3-22c9,2,17.9,4,26.9,6.1c9.8,3,19.8,5.4,29.9,7.4c7.1,1.9,26.4,7.6,33.4,9.5
	c-1.9,3.5-21.9,11.8-24.7,12.3c-9.2,1.9-20.3-0.9-28.7,3.8c-4.5,2.5-16.5,2.3-21.6,1.9c-11.9-0.8-13.4-7.9-24.6-12.2
	C182.8,380.1,182.9,374.8,180.9,373.9z"/>
<polygon class="st1" points="442.3,290.1 442.3,332.4 465.1,332.4 465.1,342.6 429.6,342.6 429.6,283.6 441.6,283.6 "/>
<path class="st2" d="M457,342.9c-31,0-62,0-92.9,0c0-2.1,0.1-4.3-0.1-6.4c-0.2-2.7,1.2-3.5,3.5-3.5c2.8,0.3,4.9,2,7.1,3.5
	c9.4,5.9,10.6,5.9,19-1.5c0.4-0.3,0.7-0.7,1.1-1c7-5.8,18.3-5,24.2,1.9c1.2,1.4,2.5,3.5,4.3,2.4s0.7-3.3,0-4.9
	c-4.8-11.4-16.3-17.2-28.5-14.5c-3.5,0.8-6.5,2.5-9.8,3.6c-0.1-2.4-0.2-4.9-0.3-7.3c-0.1-3.7-0.3-7.3-0.4-11
	c-0.1-4.3-0.2-8.7-0.3-13.1c1-1.2,2.4-1,3.7-1c14.9,0,29.8,0,44.6,0c1.3,0,2.7-0.2,3.7,1c0,4.3,0,8.7,0,13c0,3.7,0,7.3,0.1,11
	c0,2.3,0,4.7,0,7c0,11.1,0,11.1,11.3,11.1C457.1,333.2,457.1,333.2,457,342.9z"/>
<path class="st3" d="M703.6,342.9c2.7-21.2,5.3-42.5,8-63.7c0.3-2.6,1.9-7.5,1.7-10.1c-8-0.1-16.8,2.2-24.8,2.1
	c-1.4,0.2-2.7,0.5-4.1,0.7c2.2,5.4,0.8,11.1,1,16.6c0.4,16,0.1,32.1,0.2,48.1c0,2.1-0.3,4.3,0.8,6.3
	C692.1,343,697.9,342.9,703.6,342.9z"/>
<path class="st4" d="M676,172.2c4.5-3.3,4.2-8.6,5.6-13.6c3.1,3.6,1.6,8.9,5.3,11.7c0.2,1.3,1.2,1.9,2.1,2.6
	c3.7,3.1,4.1,6.7,1.2,10.4c-2.2,2.8-2.3,5.3,0.2,7.8c4.1,4,6.2,8.2,1.4,13.1c-1,1-1,2.4-0.7,3.8c0,2.4,1.3,4.1,3,5.5
	c3.9,3.3,3.5,6.5,0.1,9.7c-3,2.8-3.2,6.3-0.4,8.8c4.6,4.2,3.7,8,0.2,12.1c-2.6,3-2.7,6,0,8.9c2.1,2.3,2.4,5,2.1,7.9
	c-3,0-5.9-0.1-8.9-0.1c1.9-3.5,1.4-7.6-1.3-9.5c-4.6-3.3-10.1-5.3-9.5-12.4c-6-2.4-3.3-6-1.3-9.5c0.2-0.4,0-1-0.1-1.5
	c-0.3-0.3-0.6-0.5-0.9-0.8v0.1c-0.3-3.3-3.3-4.4-5.1-6.5l0.1-0.1c-0.1-0.9-0.1-1.7-0.2-2.6c0-2.4,1.5-4,3.2-5.4
	c3.9-3.1,3.9-6.3,0.4-9.5c-3.7-3.4-2.8-6.8,0.1-10c2.6-2.9,3.4-6.2,1.5-9.5C671.4,179.1,672.5,175.5,676,172.2z"/>
<path class="st5" d="M693.1,342.9c-5,0-9.9,0-14.9,0c1.1-2,0.8-4.2,0.8-6.3c0-16-0.3-32.1,0.2-48.1c0.1-5.5-1.2-11.2,1-16.6
	c4.3-0.6,8.6-0.5,12.9-0.3c0,12.8-0.1,25.6,0,38.4c0.1,8.2,0.7,16.4,0.9,24.6C694,337.4,693.4,340.2,693.1,342.9z"/>
<path class="st4" d="M727.4,223.2c2.5,3.5,5.8,2.5,8.2,0.5c3.8-3,7.2-3.1,11.5-1.1c4.9,2.3,10.5,1.4,16,2c-4.3,1.4-7.5,4.4-10.6,7.5
	c-1.9,1.9-4.5,1.3-6.7,0.7c-2.9-0.8-4.8,0.1-6.4,2.3c-1.5,2-3.5,3.7-5.8,3.4c-6.3-0.7-10.2,2.4-13.1,7.4c-4.9,0.1-9.2,0.7-12.6,5.3
	c-2.9,4-8.5,3.8-10.3,0.6c-2.6-4.4-0.1-11.9,4.6-14c2.1-0.9,3.7-1.8,4-4.4c0.5-3.6,2.9-5,6.5-3.8c2.4,0.8,4.9,0.3,6.3-1.7
	C721.2,225.1,724.3,224.3,727.4,223.2z"/>
<path class="st6" d="M727.4,223.2c-3,1.1-6.2,1.9-8.3,4.9c-1.4,2-3.9,2.5-6.3,1.7c-3.7-1.2-6,0.1-6.5,3.8c-0.4,2.7-2,3.5-4,4.4
	c-4.7,2-7.1,9.6-4.6,14c1.8,3.1,7.3,3.3,10.3-0.6c3.4-4.6,7.6-5.3,12.6-5.3c2.2,1.8,4.3,0,6.5-0.1c-1.1,2.6-3.8,4.1-5.8,3.7
	c-5.8-1.1-7,2.6-8.2,6.6c-0.3,0.3-0.6,0.6-0.9,0.8c-2.8,0.5-5.6,1-8.4,1.4c-1.2,0.5-2,1.3-1.7,2.7c-2-0.1-3.9-0.1-5.9-0.2
	c0.3-2.9,0-5.6-2.1-7.9c-2.6-3-2.5-5.9,0-8.9c3.5-4.1,4.3-7.8-0.2-12.1c-2.7-2.5-2.6-5.9,0.4-8.8c3.4-3.2,3.9-6.4-0.1-9.7
	c-1.7-1.4-3-3.1-3-5.5c3.7-1.1,5.4-3.3,5-7.3c-0.2-2.6,0.1-5.4,3.6-6c2,2.8,0.7,5.3-0.6,7.9c-1.9,3.6-2.6,6.9,1,10.2
	c5.2,4.9,5,5.4,0.6,11c-1,1.2-2.9,2.8-0.6,4c1.4,0.7,4,1.4,4.9-1.5c0.9-3.1,3.4-4.7,5.8-6.5c4-0.5,7.6-1.4,10.2-5.1
	c1.5-2,4.2-2.4,6.8-2c4.8,0.7,9.5,0.7,15.4-0.9C738,216.9,735.2,223.6,727.4,223.2z"/>
<path class="st4" d="M711,219.9c-2.4,1.7-4.9,3.4-5.8,6.5c-0.9,2.9-3.5,2.2-4.9,1.5c-2.3-1.2-0.4-2.7,0.6-4c4.4-5.6,4.6-6.1-0.6-11
	c-3.6-3.4-2.9-6.7-1-10.2c1.4-2.6,2.6-5.1,0.6-7.9c3.3-1.3,5.8-3,5.5-7.2c-0.1-1.8,0.8-3.8,2.8-4.4c4.4-1.2,7.9-3.9,11.8-6.1
	l0.1,0.1c-0.2,2.8-1.7,5.4-0.5,8.3c0.5,1.1-0.1,2.5-1,3.2c-4.2,3.2-4.8,7.5-4.4,12.3c0.1,1,0.1,2.4-0.5,2.8
	C707.8,208.4,709.7,214.1,711,219.9z"/>
<path class="st0" d="M696.1,260.9c2,0.1,3.9,0.1,5.9,0.2c2.7,0,5.3-0.1,8,0.1c1.6,0.1,4.9-1.2,3.8,2.4c-0.8,2.7,1.9,7.7-4.2,7.7
	c-5.5,0-11,0.2-16.5,0.3c-4.3-0.2-8.6-0.3-12.9,0.3c-1.4-0.2-2.7-0.5-4.1-0.7c0-3.3-0.1-6.6-0.1-9.9c2.4-0.1,4.7-0.3,7.1-0.4
	c1.4,0,2.7,0,4.1,0C690.1,260.9,693.1,260.9,696.1,260.9z"/>
<path class="st4" d="M712.9,256.1c1.3-4,2.4-7.7,8.2-6.6c2,0.4,4.7-1.1,5.8-3.7c0.1-0.1,0.3-0.3,0.4-0.3c9.2,2,19.7,0.8,25.7,10.6
	l0,0c-5.3-0.6-10.8,2.8-15.9-1c-0.8-0.6-2.3,0-3.2,0.8c-1.1,1-2.6,1.7-3.6,1.1C724.6,253.6,718.6,258.6,712.9,256.1z"/>
<path class="st4" d="M703.6,258.4c2.8-0.5,5.6-1,8.4-1.4C709.8,260.8,707,261.2,703.6,258.4z"/>
<path class="st4" d="M720,177c0.2-0.4,0.3-0.8,0.5-1.2c0.1,0.1,0.3,0.3,0.3,0.3c-0.2,0.4-0.4,0.7-0.7,1.1
	C720.1,177.1,720,177,720,177z"/>
<path class="st4" d="M753.1,256.1c0.1,0.1,0.3,0.1,0.4,0.2c0.1,0.1,0,0.2,0,0.3C753.3,256.4,753.2,256.3,753.1,256.1
	C753,256.1,753.1,256.1,753.1,256.1z"/>
<path class="st7" d="M99.5,456.5c-2.6,11.6-5.1,23.2-7.7,34.8c-9.3,42.4-18.7,84.9-28,127.4c-0.9,4.2-2.6,7.4-6.5,9.4
	c-1.4,0-2.8,0.1-4.2,0.1c-1-0.3-1.3-0.5-1.9-1.1c-2.6-2.6-2.9-5.9-2.2-9.3c4.8-23.6,28.4-140.6,32.9-163.4
	C87.8,455.1,93.6,455.8,99.5,456.5z"/>
<path class="st7" d="M278.6,627.4c-4.7-2-5.7-6.3-7-10.6c-0.5-1.9-1.1-3.7-1.7-5.6c-0.1-0.8-0.2-1.7-0.4-2.5
	c-12.3-50.5-24.6-101-36.9-151.5c5.8-0.4,11.6-0.6,17.4,0.1c4.4,20,8.8,39.9,13.1,59.9c-2.4,1-1.6,3.1-1.3,4.8
	c3.4,19.7,7,39.4,10.5,59.1c2.8,15.6,5.5,31.2,7.7,46.8l-0.3,0.1C279.3,627.8,278.9,627.6,278.6,627.4z"/>
<path class="st7" d="M160.6,627.3c-1.5-2-2.5-4.3-2.7-6.9c-3.1-29.1-16.9-157.7-16.9-157.7c-0.2-1.8-0.2-3.7-0.3-5.5
	c5.3-0.4,9.6-0.5,14.9-0.1c0,1,0.2,2,0.2,2.9c-2.6-0.1-3.2,0.5-2.8,3.8c1.2,9.1,1.9,18.3,2.9,27.5c1.6,16,3.3,31.9,4.9,47.9
	c1.2,11.9,2,23.8,3.2,35.7c1.8,18,3.4,36,2.7,54.2c-1.8,0.6-3.4-0.3-5-0.9C161.2,627.9,160.9,627.6,160.6,627.3z"/>
<path class="st0" d="M280,627.9c-2.7-15.6-5.4-31.3-8.2-46.9c-3.5-19.7-7.1-39.4-10.5-59.1c-0.3-1.6-0.7-4.1,1.8-4.7
	c3.8,16.7,6.9,33.4,11,50c1.8,7.3,2.2,15,5.8,21.8c1.3,1.5,2.5,3,3.9,4.4c6.5,6.2,12.8,6,17.8-0.4c2.6,6.6,7.4,11.2,13.5,14.7
	c6.3,3.6,12.6,7.3,18.7,11.3c2.4,1.5,5.2,3.4,3.7,7.2c-18.5-2.7-36.1-8.2-54-17.4c1.2,3.9,1.9,6.1,2.6,8.2c0,4.1,0.2,8.3-3.9,11
	C281.4,628,280.7,627.9,280,627.9z"/>
<path class="st0" d="M166,629c0.7-18.1-0.9-36.1-2.7-54.2c-1.2-11.9-2-23.8-3.2-35.7c-1.5-16-3.2-31.9-4.9-47.9
	c1.2-0.1,2.5-0.1,3.7-0.2c1.9,9,2.1,18.1,3.1,27.2c1.8,15.8,3.3,31.6,4.8,47.4c1.1,11.7,2.1,23.4,3.2,35.1c0.6,6.4,1.3,12.8,2,19.3
	c0.3,2.9-0.4,5.6-2.1,8C168.7,628.5,167.5,629.4,166,629z"/>
<path class="st8" d="M353.9,627.3c-3.6-0.9-5.9-2.6-3.8-6.7c10.5,2.2,21.2,0.3,31.8,1.4c13.2,1.3,26.2-1.3,39.1-4c0,4-2.7,5.7-6,6.8
	c-2.6,0.9-5.3,1.6-7.9,2.4c-11,2.5-21.9,2.8-33,0.2c-3.1-0.8-6.7-0.7-9.9,0C360.7,628.2,357.4,627.9,353.9,627.3z"/>
<path class="st8" d="M286,617c-0.7-2.1-1.4-4.3-2.6-8.2c17.9,9.1,35.5,14.7,54,17.4c-0.1,0.6-0.2,1.3-0.4,1.9
	c-2.8,3.4-7,3.1-10.5,2.7c-5.7-0.6-11.5-1.2-16.9-3.4C301.2,625.3,294.1,620,286,617z"/>
<path class="st9" d="M537.6,627.2c0.1,0.6,0.2,1.2,0.3,1.9h-0.4l-0.4-0.1C537.3,628.4,537.4,627.8,537.6,627.2z"/>
<path class="st4" d="M683.1,260.8c-2.4,0.1-4.7,0.3-7.1,0.4c-1.3-0.1-2.6-0.2-3.9-0.3c-0.2-4.8-2.1-8-7.3-8.6
	c-1.6-0.2-3.3-0.6-3.8-2.5c0.1-1.2,0.2-2.8-0.8-3.2c-5.1-2-8.7-6.2-13-9c-3.6-2.3-8.1-3.1-10.4-7.4c-0.5-0.9-1.5-1.2-2.6-1.1
	c-7,0.5-10.2-4.8-14-9.1l0,0c4.7-0.9,9.3,2.3,14.1,0.2c2.4-0.4,4.9,0.1,6.5,1.8c3.1,3.3,6.5,3.5,10.4,1.9c2.3,1,4.4,2.4,5.4,4.9
	c0.7,1.6,1.9,3.1,3.6,3c4,0,7.2,0.7,7.4,5.6c6.2,1.3,6.7,7.8,10.3,11.3C681.3,252.4,683.3,255.9,683.1,260.8z"/>
<path class="st6" d="M683.1,260.8c0.2-5-1.8-8.4-5.4-12c-3.6-3.5-4-10-10.3-11.3c-0.2-4.9-3.3-5.6-7.4-5.6c-1.7,0-2.9-1.4-3.6-3
	c-1.1-2.5-3.1-3.8-5.4-4.8c-0.1-0.5-0.1-1.2-0.4-1.4c-4.7-2.4-8.7-5.2-7.8-11.4c0.1-0.5-0.6-1.3-1.1-1.5c-5.5-2-6.5-6.8-7.4-11.6
	c0-1.6-1.2-2.6-2-3.8c-0.3-0.5-0.9-1.2,0-1.5c0.5-0.2,1.2,0.4,1.8,0.6c2.1,2.1,4.9,2.7,7.6,3.5c3.6,1,6.4,2.8,7.5,6.5
	c0.6,2.2,2,2.9,4,2.9c1.9,0,3.5,0.8,4.9,2c0.6,4.4,2.1,7.8,7.3,8.2c1,0.1,1.9,1.2,2.8,1.8c0.2,0.9,0.2,1.8,1.1,2.4l-0.1,0.1
	c-1.9,5,0.9,6.4,5.1,6.4v-0.1c0.3,0.3,0.6,0.5,0.9,0.8c0,0.5,0.3,1.1,0.1,1.5c-2,3.5-4.7,7.1,1.3,9.5c-0.6,7.1,5,9.1,9.5,12.4
	c2.7,2,3.2,6,1.3,9.5C685.8,260.8,684.4,260.8,683.1,260.8z"/>
<path class="st4" d="M653.1,261c-6.1-2.8-12-6.3-19.2-5.1c-7-2.6-14.9-1.7-21.9-5.8c5.8-0.3,9.9-6.4,16.6-3.9c1.9,0.7,3.7-1.1,5.5-2
	c2.8-0.7,4.2,3.3,6.7,2.4c6.6-2.3,12.1,3,18.5,2.3c-0.8,3.5,0.9,5.4,4.1,6.1c3.2,0.8,4.9,2.7,4.8,6C663.1,261,658.1,261,653.1,261z"
	/>
<path class="st4" d="M620.1,220.1c-0.4-0.1-0.8-0.2-1.2-0.3C619.6,218.9,619.7,219.7,620.1,220.1C620,220.1,620.1,220.1,620.1,220.1
	z"/>
<path class="st7" d="M556,69.6c4,3.7,6.7,8.2,7.6,13.7c0.1,11.7,0.2,23.3,0.2,35c0,35.5,0,71,0,106.5c0,1.8,0.2,3.6,0.2,5.5
	c0,1.6,0,3.3,0,4.9c0,1.4,0,2.7,0,4.1c0,2,0,3.9,0,5.9c0,0.7,0,1.4,0,2.1c-0.1,1.6-0.1,3.1-0.2,4.7c-3.6,0.5-7.3,0.4-10.9,0.1
	c0-55.5,0-111,0-166.5c0-5.2-2.2-9.5-5.5-13.5c-2.4-2.9-6.3-3.5-8.4-6.5C545.3,64.5,550.8,66.4,556,69.6z"/>
<path class="st10" d="M564.1,265.2c-0.3,8.1-1.7,15.9-8,21.8c-6.1,2.7-12.3,5.3-19.2,3.8c0.7-0.4,1.4-0.8,2.2-1.1
	c9.5-3.9,13.9-10.4,14-20.5c0-5.6,0-11.2,0-16.8l-0.2-0.2l0.1-0.2c3.6,0.4,7.3,0.4,10.9-0.1c0.2,1.4,0.3,8.6,0.2,10.2
	C564.1,263.1,564.1,264.1,564.1,265.2z"/>
<path class="st11" d="M539.1,65.4c2.2,3,6,3.6,8.4,6.5c3.3,4,5.5,8.3,5.5,13.5c0,55.5,0,111,0,166.5l-0.1,0.2l0.2,0.2
	c-2-0.1-4-0.2-6-0.2c-44-0.1-88-0.1-132.1-0.2c-0.3-2.2-2.4-2.1-3.9-2.6c-2.8-1-5.8-1.5-8.6-2.6c-12-4.8-24.4-8.2-36.8-11.7
	c-14.6-4.1-29.8-5-44-11.6c-12.6-5.8-25.1-11.8-38.1-16.9c-7.8-3-13.7-9.4-16.2-17.3c-2.7-8.6-4.8-17.4-6.9-26.2
	c-3.8-16.2-16.6-42.1-18.4-51c0,0-0.2-18.1-0.1-26.1c0.2-12.2,8.9-20.8,21.1-20.9c24.8-0.1,49.6-0.1,74.4-0.1c1.8,0,3.7-0.1,5.5-0.2
	c9.7,0.1,19.3,0.2,29,0.3c12.5,11.5,13.4,24.7,20,37.2c5.9,11.3,13.2,24.2,19.2,35.4c-27.1,0-58.8,2.2-85.9,2.1
	c-3.4,0-3-3.3-6.2-2.9c-2.3,0.3-3.5,1.6-4,3.8c-1.8,7.4,0,12.5,10,11.2c0,2.7,0.1,5.3,0.1,8c0,3.7,0,7.3,0,11c-0.1,7,0.1,14-0.3,21
	c-0.2,3.7,1.2,4.3,4.5,4.2c12-0.2,24-0.1,36-0.1c26.5,0,53-0.1,79.5,0.1c3.3,0,4.8-0.5,4.5-4.2c-0.4-7-0.3-14-0.4-21c0-3,0-6,0.1-9
	c1-3.7-0.7-7.8,1.8-11.2c0.2,0.2-39-70.1-39-70.1L468.1,65C468.1,65.3,515.4,65.3,539.1,65.4z"/>
<path class="st7" d="M325,152.1c-9.9,1.2-11.8-3.9-10-11.2c0.5-2.2,1.8-3.4,4-3.8c3.3-0.5,6.5-1.1,9.8-1c27.1,0.1,105.9-0.4,113.2,0
	c10.9,0.8,21.8-0.7,32.7,0.8c5,0.7,6.3,3.8,6.1,8c-0.2,5.1-2.3,7.2-7.4,7.3c-7.1,0.1-14.2,0.1-21.4,0.1c-0.4-0.5-0.8-0.9-1.3-1.4
	c0.7-3.1,3.9-4.1,6.1-6.5c-39.8,0-79.1,0.1-118.4-0.1C332.3,144.2,327.8,146.3,325,152.1z"/>
<path class="st11" d="M444.1,137.1c-7.2-0.1-23.3-1.1-23.3-1.1l-0.5-0.8c0,0-25.5-46.6-38.2-69.9c7,0,14-0.1,21-0.1
	c10.6,19.1,30.9,16.8,41.5,35.9C447.1,105.6,441.7,132.5,444.1,137.1z"/>
<path class="st12" d="M669,220.6c-0.9-0.6-0.9-1.5-1.1-2.4c0.3-0.1,0.6-0.1,0.9-0.1C668.9,218.9,669,219.8,669,220.6z"/>
<path class="st13" d="M81.9,454.4c-12-2.9-23.8-6.3-33.8-14c-12.5-9.7-19.1-22.6-20.3-38C24.2,358.9,17.6,316,5.6,274.1
	c-0.8-2.7-1.8-5.3-2.8-7.9c-1-3.9-1.6-7.8-1.4-11.8c1.7-5.6,6.1-7,11.3-7.1c12.7-0.1,25.4,0.6,38-0.2c18.6-1.2,33.8,5.9,47.5,17.2
	c28,23.1,43.1,53.5,50.5,88.3c2.1,9.9,3.8,19.9,7.1,29.5c15.1,44.5,48.2,68.3,95.2,68.4c15.7,0,31.3,0,47,0c1.9,0,4-0.6,5.8,0.6
	c-2.1,1.6-4.1,3.3-6.2,4.9c-5.4,1.4-10.8,1-16.3,1.1c-10.4,0.1-20.9,0.1-31.3,0.2c-5.8-0.7-11.6-0.5-17.4-0.1c-13,0-26,0-39.1,0
	c-12.4,0-24.8,0-37.2,0c-5.3-0.5-10.5-0.5-15.8,0c-13.7-0.3-27.4,0.3-41.1-0.8C93.6,455.8,87.8,455.1,81.9,454.4z"/>
<path class="st0" d="M22.7,231.3c7-0.2,14,0.5,20.9-0.3c10.6-8.2,23.3-13.1,31.3-13c3,0,14.6,1.3,17.5,1.8c19,3.5,31,21.6,43.7,35.1
	c20.9,22.2,19.1,54.1,24.8,83.9c1.8,9.3,3.6,18.6,6.7,27.6c2.5,7.3,4.7,14.9,10,20.9c3.5,9.6,10.3,17.1,17.6,23.7
	c18.5,16.6,39,22.6,63.5,23.1c9.3,0.2,19.6,1.1,28.9,0.7c6.2-0.3,12.4,1.5,17,5.4c4.1,8.1,4.1,8.1-0.8,10.9
	c-1.8-1.2-3.9-0.6-5.8-0.6c-15.7-0.1-31.3,0-47,0c-47-0.1-80.1-23.9-95.2-68.4c-3.3-9.6-5-19.6-7.1-29.5
	c-7.3-34.8-22.5-65.3-50.5-88.3c-13.8-11.4-29-18.4-47.5-17.2c-12.6,0.8-25.3,0.1-38,0.2c-5.2,0-9.6,1.4-11.3,7.1
	c-2.4-3.8,0.9-6.2,2.1-9C8.5,238.6,15.5,234.9,22.7,231.3z"/>
<path class="st3" d="M661,342.9c-2.7-21.2-5.3-42.5-8-63.7c-0.3-2.6-1.2-5.2-1-7.8c8-0.1,16.1-0.1,24.1-0.2c1.4,0.2,2.7,0.5,4.1,0.7
	c-2.2,5.4-0.8,11.1-1,16.6c-0.4,16-0.1,32.1-0.2,48.1c0,2.1,0.3,4.3-0.8,6.3C672.5,343,666.7,342.9,661,342.9z"/>
<path class="st6" d="M373.4,597c6.5,9.7,16.8,11.5,27.2,12.9c3.7,0.5,7.4,1.8,11.3,1.2c1.4,1.5,3.2,1.9,5.1,2.1c1.6,1.4,4,2.2,4,4.9
	c-12.9,2.6-25.9,5.3-39.1,4c-10.6-1-21.3,0.9-31.8-1.4c0.1-6.4,1.4-12.6,3.9-18.5C361.9,608.7,369.6,606.7,373.4,597z"/>
<path class="st12" d="M674,227.2c-4.3-0.1-7-1.4-5.1-6.4C670.7,222.8,673.7,223.9,674,227.2z"/>
<path class="st12" d="M674.9,227.9c-0.3-0.3-0.6-0.5-0.9-0.8C674.3,227.4,674.6,227.7,674.9,227.9z"/>
<path class="st11" d="M676.1,271.2c-8,0.1-16.1,0.1-24.1,0.2c-0.4-2.7-0.6-5.4-1.1-8.1c-0.3-1.9,0.8-2.2,2.2-2.2c5,0,10,0,15,0
	c1.3,0,2.6,0,3.9,0c1.3,0.1,2.6,0.2,3.9,0.3C676,264.6,676.1,267.9,676.1,271.2z"/>
<path class="st11" d="M158.9,491c-1.2,0.1-2.5,0.1-3.7,0.2c-0.9-9.2-1.7-18.4-2.9-27.5c-0.4-3.3,0.9-3.8,3.5-3.7
	C156.8,470.4,157.9,480.7,158.9,491z"/>
<path class="st0" d="M537.6,557c-0.8-2.3-0.8-4.5,0-6.8C538.1,552.5,538.1,554.7,537.6,557z"/>
<path class="st11" d="M373.4,597c-3.8,9.8-11.5,11.8-19.4,5.1c-5.6-31.1-11.3-62.2-17-93.3c-0.3-1.6,0.1-3.7-1.9-4.7
	c-7.2-9.3-7.7-10.2-8.3-12.5c-1.4-5.9-0.4-7-1.4-13c-2-11.7-1.6-11.5-3.6-23.2c-0.6-3.8,1.7-9.5-3-9.1c-5.1,0.4-9.5-5.5-14.7-6.1
	c-4.7-3.9-10-5.4-16.1-5.1c-9.3,0.4-18.7,0.3-28,0.1c-24.6-0.5-46.8-7.6-65.3-24.2c-7.3-6.6-14.1-14-17.6-23.7
	c0.9-4.5,1.7-9.1,3.9-13.3c2,0.9,3.9,1.8,5.9,2.5c11.3,4.2,23.1,5.6,34.9,6.5c5.1,0.3,10.7,1.8,15.2-0.7c8.4-4.7,17.5-6.4,26.7-8.3
	c2.8-0.6,6.5,0.8,8.4-2.6c12.6,3,25.3,6.1,37.9,9.1c10.3,2.8,20.6,5.7,31,8.4c7.8,2.1,15.5,4.6,22.9,7.8c13.8,7.3,19.2,19,18.2,34.3
	c-2,32.9-3.8,65.8-5.6,98.8c-1.2,21.3-2.3,42.6-3.4,63.9C373,594.7,373.3,595.8,373.4,597z"/>
<path class="st7" d="M304.1,440.1c5.2,0.6,10.2-0.7,15.3-1.2c4.8-0.4,6,2,6.6,5.7c2,11.7,4.1,23.4,6.1,35.1c1,6,1.8,12.1,3.2,18
	c0.5,2.3,0.2,4.2-0.2,6.3c-9.5,24.6-19.1,49.2-28.5,73.9c-1.9,4.9-4.6,9.6-5,15.1c-5,6.4-11.3,6.6-17.8,0.4
	c-1.4-1.3-2.6-2.9-3.9-4.4c0.6-1.7,1-3.4,1.3-5.3c3.4-27.8,7-55.6,10.5-83.4c1.9-14.8,3.6-29.6,5.5-44.4c2.1-1.6,4.1-3.3,6.2-4.9
	C308.1,448.2,308.1,448.2,304.1,440.1z"/>
<path class="st0" d="M791.8,346c-6.3,0-12.5,0-18.8,0c-5.6,0-11.3,0.1-16.9,0.1c-1,18.8-2.1,37.6-3.1,56.4
	c-2.3,46.8-4.5,93.5-6.7,140.3c-1.1,22.6-2.5,45.3-3,67.9c-0.2,7.4-3,12.5-8.3,17.9v-5.9c0-90.3,0-180.6,0.1-270.9
	c0-4.4-0.9-5.9-5.6-5.8c-14.2,0.4-28.3,0.2-42.5,0.3h-1c-3.6,0-7.3,0-10.9,0c-4,0-8.1,0-12.1,0c-9.6,0-19.3,0-28.9,0
	c-8.7,0-17.4,0-26.1,0h-27c-5,0-10.1,0-15.1,0c-2.6,0-5.2,0-7.8,0c-0.5,14-2.3,56.5-2.2,57.2c-0.4,6.9-4,9.4-6,2.9
	c3.3,5.9,5.6,1.4,6-3c0,3.8,0,7.7,0,11.5c-1.7,7.2-0.8,14.5-1.6,21.8c-0.8,8.1-0.9,16.3-1.3,24.4c0,2.7,0.2,5.3,0.1,8
	c-0.8,17-2.4,34-3,51.1c-1,28.4-2.8,56.7-3.8,85.1c-0.3,8.2-0.2,16.3-6.3,22.7c-0.7,0.4-1.4,0.8-2,1.1c-0.1-0.6-0.2-1.2-0.3-1.9
	c0-23.4,0-46.8,0-70.2c0.5-2.3,0.5-4.5,0-6.8c0-4.4,0-8.8,0-13.2c0.1-2.2,0.3-4.3,0.3-6.5c0.1-23.8,0.1-47.6,0.2-71.5
	c0-19,0-38,0.1-57c-0.1-18.6-0.2-37.3-0.3-55.9c-10.6,0-21.2,0.1-31.8,0.1c-2.3-0.1-4.6,0-6.9-0.2c-2.4-0.2-3.1,0.8-3.2,3.1
	c-0.4,11.6-0.9,23.1-1.3,34.7c-0.6,9.3-1.2,18.6-1.6,27.8c-1.2,25.1-2.2,50.2-3.4,75.2c-1.8,38.9-3.9,77.7-5.5,116.6
	c-0.4,9-0.6,17.5-7.3,24.4c-0.5,0.1-1.1,0.1-1.1,0.7c-0.1-1.9-0.4-3.7-0.4-5.6c0-48.2,0-96.3,0-144.5c0-42.3-0.1-84.6,0.1-127
	c0-4.7-1.4-5.8-5.8-5.6c-8.5,0.4-17,0.2-25.5,0.2c-7.5-0.1-15,0.1-22.4-0.3c-4.2-0.2-4.8,1.4-4.8,5.1c0.1,87.4-0.1,175-0.1,262.4
	c-1.9-0.2-3.8-0.5-5.1-2.1c0-77.2,0.3-154.6,0.3-231.8c0-0.8-0.2-1.6-0.3-2.5c0.1-9.2,0.1-18.3,0.2-27.5c0-2.5-0.6-3.5-3.3-3.5
	c-22.8,0.1-45.6,0.1-68.5,0.2c-15.7,0-31.4,0-47.2,0c-16.9,0-33.9,0-50.9,0c-7.4,0-14.7,0-22.1,0c-6,0-12-0.1-17.9-0.2
	c-1.1,0-2.7,0.4-2.8-1.2c-0.2-2.1,1.6-1.7,2.8-1.7c5.6-0.1,11.3-0.1,16.9-0.2c7,0,14,0,21.1,0c17,0,33.9,0,50.9,0
	c15.7,0,31.5,0,47.2,0c8.6,0,17.3,0,25.9,0c31,0,61.9,0,92.9,0c6.3,0,12.6,0,18.9,0c26.8,0,53.5,0,80.3,0c2.9,0,5.9,0,8.8,0
	c5.4,0,10.7,0,16.1,0c9.6,0,19.3,0,28.9,0h24.1c9,0,17.9,0,26.9,0c5.7,0,11.5,0,17.2,0c5,0,9.9,0,14.9,0l60,0.4c6.7,0,13.3,0,20-0.1
	c6.3,0,12.5-0.1,18.8,0c1.1,0,2.7-0.4,2.8,1.2C794.8,346.5,792.9,346,791.8,346z"/>
<path class="st7" d="M91.1,37.2c2.8-1.7,4.2-4.2,5.3-7.3c3.6-9.8,10.9-16.4,19.9-21.2c1.6-0.9,3.2-1.7,4.8-2.6
	c6.9-2.2,13.7-4.7,21.1-4.1c2.3,0.2,4.6,0.4,6.7,1.3c4.8,7.1,7.6,11.9,14.3,15.6c5.4,3,5.5,3.2,12.1,4.1c7.1,3,9.9,5.2,11.8-2.6
	c3.2-6.8,6.3-13.1,6.7-20c28.3,10.9,32.8,40.4,9.2,60.6c-3.4,1.4-6.8,2.8-10.2,4.2c-2.3,0.5-4.5,1-6.8,1.5c-4.4,0.9-4.8,5.4-7.3,9.4
	c-4.2,6.7-10.8,12.5-12.2,20.6c-0.8,4.6-3.8,8.8-4.6,14.1c-2.2-3.2-2.9-8.3-3.1-11.3c-0.3-5.3-3.2-7.1-3.5-12.4
	c-0.2-2.8-1.2-1.3-4.1-2c-2.7-0.7,1.2-4.2-0.6-2.3c-6.1,6.8-5.7,11.9-0.3,20.2c0.9,1.4,4.1,8.3,3.7,10.3
	c-1.5,8.7-13.8,12.2-22.6,12.1c-3.2,0-6.3-0.6-9.3-1.3c-1.1-6.8-4.7-12.4-9.1-17.4c-6-6.7-12-13.4-18.3-19.8
	C81.1,73.2,82.5,50,91.1,37.2z"/>
<linearGradient id="SVGID_1_" gradientUnits="userSpaceOnUse" x1="273.9216" y1="393.8857" x2="337.4175" y2="459.1366" gradientTransform="matrix(1 0 0 -1 0 632)">
	<stop  offset="0" style="stop-color:#1A397A"/>
	<stop  offset="0.3393" style="stop-color:#17316B"/>
	<stop  offset="0.9943" style="stop-color:#0E1B42"/>
	<stop  offset="1" style="stop-color:#0E1B42"/>
</linearGradient>
<path class="st14" d="M242.1,112l2,0c0,0,162.2,14.2,170.9,140c-1.8,0.1-3.7,0.2-5.5,0.2c-37.5,0.1-74.9,0.1-112.4,0.1
	c-8.6-7.5-17.3-15-25.9-22.5c-1.5-1.6-2.9-3.1-4.4-4.6c-8.4-8.4-16.8-16.7-25.2-25.1c0-20.3,0-40.6,0-60.8
	C241.9,129.5,242,121.7,242.1,112z"/>
<path class="st0" d="M193.1,21.3c-1.9,7.8-9.9,10.8-17,7.8c0.1-2.4-1.1-4.3-2.6-6.1c-2.3-2.9-4.5-6-5.5-9.7c4.2,0.2,8-0.7,10.9-4
	c1.4-1.2,2.8-2.5,4.1-3.7c-0.3,5,1.2,9,5.6,11.8C190.4,18.3,191.7,19.9,193.1,21.3z"/>
<path class="st6" d="M193.1,21.3c-1.4-1.3-2.7-2.9-4.4-4c-4.4-2.8-6-6.8-5.6-11.8c2.9-3.2,5.6-6.8,10.8-5
	C193.6,7.4,196.3,14.5,193.1,21.3z"/>
<path class="st0" d="M382.1,65.3c12.7,23.3,38.7,70.7,38.7,70.7s-7.3-0.1-10.7,0.1c-6-11.2-12.2-22.4-18.1-33.6
	C385.4,90,378,77.7,372,65C375.4,65,378.8,65.3,382.1,65.3z"/>
<path class="st6" d="M672.1,261c-1.3,0-2.6,0-3.9,0c0.1-3.4-1.6-5.3-4.8-6c-3.2-0.8-4.9-2.6-4.1-6.1c0.6,0.4,1.2,0.7,1.7,1.1
	c0.5,1.9,2.2,2.3,3.8,2.5C669.9,253,671.9,256.2,672.1,261z"/>
<path class="st2" d="M297.2,252.3c37.5,0,74.9-0.1,112.4-0.1c1.8,0,3.7-0.1,5.5-0.2c44,0.1,88,0.1,132.1,0.2c2,0,4,0.1,6,0.2
	c0,5.6,0,11.2,0,16.8c0,10.2-4.5,16.7-14,20.5c-0.8,0.3-1.5,0.7-2.2,1.1c-22.6,0.1-45.3,0.2-67.9,0.3c-5.7,0-11.3,0-17,0
	c-5.3,0-10.7,0-16,0c-1-1.2-2.4-1-3.7-1c-14.9,0-29.8,0-44.6,0c-1.3,0-2.7-0.2-3.7,1c-13.9,0-27.8,0-41.7,0
	C326.8,278.8,311.8,265.7,297.2,252.3z"/>
<linearGradient id="SVGID_2_" gradientUnits="userSpaceOnUse" x1="324.9813" y1="459.2748" x2="449.5176" y2="459.2748" gradientTransform="matrix(1 0 0 -1 0 632)">
	<stop  offset="1" style="stop-color:#FFFFFF"/>
	<stop  offset="1" style="stop-color:#B4E1F7"/>
</linearGradient>
<path class="st15" d="M449.1,171.3c0,0,0,14,0.4,21c0.2,3.8-1.3,4.2-4.5,4.2c-26.5-0.1-53-0.1-79.5-0.1c-12,0-24-0.1-36,0.1
	c-3.3,0.1-4.7-0.5-4.5-4.2c0.4-7,0.3-21,0.3-21l-0.2-19c0,0,121-2.2,122.5-3.3C449.5,147.6,449.1,171.3,449.1,171.3z"/>
<path d="M383.6,335v9.6h41.5c0,0-5.9-20.1-26-15.6S383.6,335,383.6,335z"/>
<linearGradient id="SVGID_3_" gradientUnits="userSpaceOnUse" x1="391.15" y1="458.616" x2="391.15" y2="488.1289" gradientTransform="matrix(1 0 0 -1 0 632)">
	<stop  offset="0" style="stop-color:#FFFFFF"/>
	<stop  offset="1" style="stop-color:#B4E1F7"/>
</linearGradient>
<path class="st16" d="M457.1,144.3c-2.2,2.4-5.4,3.4-6.1,6.5c-2.5,3.4-0.8,7.5-1.8,11.2c0,3,0,6-0.1,9c-2.1,0-4.2,0-6.2,1.4
	c-1.9,1.3-4.2,1.9-6.5,0.4c-1.6-1.1-3.5-0.7-5.3-0.7c-12,0-24.1-0.7-36,0.2c-8.9,0.7-17.9-1.1-26.9,0.7c-3.2,0.7-8.2,1.6-12.1-1.3
	c-2.2-1.6-4.7,0.5-7.2,0.4c-7.9-0.6-15.8-0.8-23.6-1.1v-11c0-2.7-0.1-5.3-0.1-8c2.7-5.8,7.3-7.9,13.7-7.9
	C378,144.4,417.2,144.3,457.1,144.3z"/>
<path class="st4" d="M271.4,229.8c0,0,0,0.1-0.1,0.1l-0.1,0.1c-10.7,13.7-21.4,27.4-32.1,41.2c-13.4-5.6-24.8-14.4-36.7-22.4
	c-2.6-1.8-5.1-3.7-7.6-5.5c-1-0.7-1.9-1.5-2.8,0.1c-4,6.5-5.1,13.9-5.6,21.2c-0.5,7.5-1.9,15.1,0,22.6c0,11.6,2.6,22.9,4.3,34.3
	c1.5,10.1,2.5,20.3,3.7,30.4c-2.9,2.1-5.2,4.6-7.1,7.4c-2.9,4.3-4.7,9.3-6.2,14.5c-2.2,4.1-3,8.7-3.9,13.2c0,0.1,0,0.1,0,0.1
	c-4-4.6-6.3-10.2-8.2-15.8c-0.6-1.7-1.1-3.3-1.7-5c0-0.1,0-0.1,0-0.1c-3.1-9-4.9-18.3-6.7-27.6c-5.7-29.7-17.6-56.5-38.5-78.8
	c-12.7-13.5-27-24.9-45.9-28.4c-2.9-0.5-6-0.5-8.9-0.5c-8-0.1-16-0.2-24-0.2c0.8-12.1,0.1-24.5,5.2-35.7c9.5-20.9,26.2-32.9,48.6-37
	c3.7-0.7,7.6-0.5,11.2-2c2.7,1.6,5.5,0,8.2-0.1c15-0.4,30,0.6,44.9,2.4c2.3,2.1,5.1,1.7,7.8,2l0,0c0.4,0,0.8,0.1,1.1,0.2
	c12.1,2.6,23.7,7,35.2,11.5c12.8,7.2,23.8,16.7,34.3,26.8c0.6,0.5,1.4,0.8,2.2,1.1c8.4,8.4,16.8,16.7,25.2,25.1
	c1.3,1.3,2.6,2.7,3.8,4C271,229.4,271.2,229.6,271.4,229.8z"/>
<path class="st17" d="M161.1,158.4c-14.9-1.9-29.9-2.8-44.9-2.4c-2.7,0.1-5.4,1.7-8.1,0.1c7.9-9.3,12.6-20,14.2-32.1
	c3.1,0.8,6.2,1.3,9.3,1.3c8.9,0.1,15.1-5.3,16.6-14c0.3-2-0.6-3-1.5-4.4c-5.4-8.2-4.9-19.6,1.2-26.4c1.7-1.9,3.7-3.8,6.4-3.1
	c2.9,0.7,4,3.4,4.1,6.2c0.3,5.3,0.3,10.6,0.6,15.9c0.2,3,0.8,5.9,3,9.1c0.8-5.3,1.4-9.9,2.2-14.5c1.4-8.1,6.1-14.7,10.3-21.4
	c2.5-4,7.2-5.1,11.7-6c2.3-0.5,4.5-1,6.8-1.5c0.2,14.9,0.6,29.8-1.6,44.7c-1,7-4.5,12.3-9.4,16.9c-5.3,2.4-10.9,4.3-16.8,2.9
	c-3.2-0.8-3.2,0.6-3.2,2.9C161.7,141.2,161.4,149.8,161.1,158.4z"/>
<path class="st11" d="M168,13.3c1,3.7,3.1,6.8,5.5,9.7c1.5,1.8,2.7,3.7,2.6,6.1c-6.6-0.9-11-5.9-16.4-8.8
	c-6.7-3.7-9.6-9.7-10.7-16.9C156.2,5,161.3,10.8,168,13.3z"/>
<path class="st17" d="M423,338.3c-1.4,0.8-2.5-0.2-3.5-1.4c-0.3-0.3-0.6-0.7-0.8-1c-5.9-6.9-17.2-7.8-24.2-1.9
	c-0.4,0.3-0.7,0.7-1.1,1c-8.5,7.3-9.6,7.4-19,1.5c-2.2-1.4-4.3-3.1-7.1-3.5c-13.8-7.3-27.9-14-42.3-20.1v0.1c-0.3-0.3-0.7-0.5-1-0.8
	c-14.9-7.4-29.9-14.7-45.2-21.3c-12.3-5.9-24.5-11.7-36.8-17.6c-1-0.7-2.1-1.4-3.1-2.1l32.3-41.3c0.1-0.1,0.1-0.1,0.1-0.1
	c8.6,7.5,17.3,15,25.9,22.5c14.6,13.5,29.5,26.5,45.1,38.9c11.9,10.4,24.3,20.3,37,29.8c1.6,1.2,3.2,3.3,5.7,1.6
	c3.3-1.1,6.3-2.8,9.8-3.6c12.1-2.6,23.7,3.2,28.5,14.5C423.7,335,424.8,337.2,423,338.3z"/>
<path class="st2" d="M242.1,273.3c12.3,5.9,24.5,11.7,36.8,17.6c-4.3,0.1-8.6,0.1-12.9,0.2C252.6,291,244.2,284.8,242.1,273.3z"/>
<path class="st12" d="M324.2,312.2c0.3,0.3,0.7,0.5,1,0.8C324.8,312.8,324.5,312.5,324.2,312.2z"/>
<path class="st0" d="M197.2,3.9c7.4,7.1,10.8,15.7,9.7,26c-0.7,6.3-5.3,9.9-10,13c-6.8,4.4-14.7,5.7-22.8,6.6
	c3.5-1.4,7-2.9,10.5-4.3c16.9-6.7,21.6-16.2,14.2-35.3c-0.7-1.8-2.1-3.4-2.1-5.5C196.9,4.2,197.1,4.1,197.2,3.9z"/>
<path class="st0" d="M196.8,4.3c-0.1-0.2-0.2-0.5-0.3-0.7c0.2,0.1,0.5,0.2,0.7,0.3C197.1,4.1,196.9,4.2,196.8,4.3z"/>
<path class="st0" d="M555.9,401.1L555.9,401.1z"/>
<path class="st18" d="M194.2,351.9c-2.5,0.6-4.9,3.5-7.1,7.4c-5.6,9.9-9.8,26.3-10.1,27.7c0,0.1,0,0.1,0,0.1
	c-3.9-5.5-6.6-11.6-8.2-15.8c-1-2.6-1.6-4.5-1.7-5c0-0.1,0-0.1,0-0.1c-12.8-113.3,24.9-123,24.9-123c-4,6.5-5.1,13.9-5.6,21.2
	c-0.5,7.5-1.9,15.1,0,22.6c0,11.6,2.6,22.9,4.3,34.3C192,331.6,193,341.8,194.2,351.9z"/>
<path class="st19" d="M420.3,336.7l-0.8,0.2c-0.3-0.3-0.6-0.7-0.8-1c-5.9-6.9-17.2-7.8-24.2-1.9c-0.4,0.3-0.7,0.7-1.1,1
	c-8.5,7.3-9.6,7.4-19,1.5c-2.2-1.4-4.3-3.1-7.1-3.5c-13.8-7.3-27.9-14-42.3-20.1v0.1c-0.3-0.3-0.7-0.5-1-0.8
	c-14.9-7.4-29.9-14.7-45.2-21.3c-12.3-5.9-24.5-11.7-36.8-17.6c-1-0.7-2.1-1.4-3.1-2.1l32.3-41.3c-1.1,1.7-15.2,23.6,3.3,38.2
	c19.3,15.2,107.2,67.5,107.2,67.5s3.2,2,6-1.3C393.9,326.5,412.7,317.6,420.3,336.7z"/>
<linearGradient id="SVGID_4_" gradientUnits="userSpaceOnUse" x1="410.1" y1="315.248" x2="410.1" y2="504.8965" gradientTransform="matrix(1 0 0 -1 0 632)">
	<stop  offset="0" style="stop-color:#FFFFFF"/>
	<stop  offset="0.1328" style="stop-color:#E2E1E1"/>
	<stop  offset="1" style="stop-color:#000000"/>
</linearGradient>
<path class="st20" d="M436.1,315.1h-51.3c-0.1-3.7-0.3-7.3-0.4-11c-0.1-4.3-0.2-8.7-0.3-13.1c1-1.2,2.4-1,3.7-1
	c14.9,0,29.8,0,44.6,0c1.3,0,2.7-0.2,3.7,1c0,4.3,0,8.7,0,13C436,307.8,436.1,311.4,436.1,315.1z"/>
<g>
	
		<linearGradient id="SVGID_5_" gradientUnits="userSpaceOnUse" x1="160.4726" y1="613.5374" x2="210.6392" y2="627.8707" gradientTransform="matrix(1 0 0 -1 0 632)">
		<stop  offset="0" style="stop-color:#0A122A"/>
		<stop  offset="1" style="stop-color:#3988BD"/>
	</linearGradient>
	<path class="st21" d="M193.1,21.3c-1.9,7.8-9.9,10.8-17,7.8c-6.6-0.9-11-5.9-16.4-8.9c-6.7-3.7-9.6-9.7-10.7-16.8
		c7.2,1.7,12.2,7.5,19,9.9c4.2,0.2,8-0.7,10.9-4.1c1.4-1.2,2.8-2.5,4.1-3.7c2.9-3.2,5.6-6.8,10.8-5C193.6,7.4,196.3,14.5,193.1,21.3
		z"/>
</g>
<path class="st22" d="M271.3,229.9l-0.1,0.1l-11.1,13.3c-38.2-59.8-75.4-77.8-91.2-82.9c0.4,0,0.8,0.1,1.1,0.2
	c12.1,2.6,23.7,7,35.2,11.5c12.8,7.2,23.8,16.7,34.3,26.8c0.6,0.5,1.4,0.8,2.2,1.1c8.4,8.4,16.8,16.7,25.2,25.1
	c1.3,1.3,2.6,2.7,3.8,4C271.1,229.6,271.3,229.9,271.3,229.9z"/>
<linearGradient id="SVGID_6_" gradientUnits="userSpaceOnUse" x1="426.0289" y1="573.2059" x2="517.2268" y2="429.8828" gradientTransform="matrix(1 0 0 -1 0 632)">
	<stop  offset="0" style="stop-color:#1A397A"/>
	<stop  offset="0.3393" style="stop-color:#17316B"/>
	<stop  offset="0.9943" style="stop-color:#0E1B42"/>
	<stop  offset="1" style="stop-color:#0E1B42"/>
</linearGradient>
<path class="st23" d="M468.1,65.3c4.6,10,10.8,19,16.2,28.5c8.9,15.7,68.1,119.7,68.1,119.7l-41.3,38.6c0,0-56.1-92.5-58.9-99.9
	c7.1,0,14.2,0,21.4-0.1c5.1-0.1,7.2-2.1,7.4-7.3c0.1-4.2-1.1-7.3-6.1-8c-10.9-1.5-21.8-0.1-32.7-0.8c-2.4-4.5-4.7-9.1-7.2-13.6
	c-10.6-19.1-21.3-38.2-31.9-57.2C405.7,65.1,452.4,65.2,468.1,65.3z"/>
<path class="st0" d="M415.1,251.9"/>
</svg>
